<?xml version="1.0" encoding="UTF-8"?>
<!-- Generator: visioncortex VTracer -->
<svg id="svg" version="1.1" xmlns="http://www.w3.org/2000/svg" style="display: block;" viewBox="0 0 362 376"><path d="M0 0 C119.46 0 238.92 0 362 0 C362 124.08 362 248.16 362 376 C242.54 376 123.08 376 0 376 C0 251.92 0 127.84 0 0 Z M241.35888672 15.02212524 C217.90429556 15.06343779 194.44982194 15.14468048 170.99537659 15.23571491 C159.2609237 15.28096305 147.52650486 15.32041619 135.79199219 15.34643555 C125.42267958 15.36943534 115.0534616 15.4027984 104.68422413 15.44870156 C99.23395736 15.47249303 93.78378298 15.49131684 88.33346558 15.49761391 C83.23735802 15.50367467 78.14149268 15.5237099 73.04547501 15.55427551 C71.18637907 15.56302031 69.32725148 15.56678575 67.46813583 15.56500816 C53.16133043 15.55564965 41.05553147 16.45457128 29 25 C27.73542969 25.87978516 27.73542969 25.87978516 26.4453125 26.77734375 C23.49111129 29.4625522 22.07614844 32.05014406 20.3125 35.625 C19.73113281 36.77226563 19.14976563 37.91953125 18.55078125 39.1015625 C14.18494686 49.2934511 14.72541772 60.16095654 14.77294922 71.02587891 C14.77351412 72.84013869 14.77319523 74.65439893 14.77206421 76.46865845 C14.77149278 81.368777 14.78321304 86.2687967 14.79721212 91.16889238 C14.80975454 96.29914372 14.81089274 101.42939757 14.81326294 106.55966187 C14.81946741 116.26332562 14.83586422 125.96694406 14.85596192 135.6705879 C14.87835311 146.72259833 14.88932244 157.77461098 14.89935279 168.82663846 C14.92023139 191.55111738 14.95538722 214.27555615 15 237 C16.60185877 237.01513695 18.20375889 237.02594134 19.80566406 237.03491211 C21.14374115 237.04463295 21.14374115 237.04463295 22.5088501 237.05455017 C37.25202704 236.73171018 50.43697331 224.83187823 60.9921875 215.6171875 C64.34948102 212.69590612 67.79538479 209.91639339 71.28515625 207.15625 C73.36720386 205.50259492 75.43500777 203.83569442 77.49609375 202.15625 C85.41622725 195.71998707 93.36827731 189.46452728 102 184 C102.85335937 183.45085937 103.70671875 182.90171875 104.5859375 182.3359375 C114.71679051 176.75617538 128.02182342 177.74031384 138.98632812 180.41333008 C147.04323195 182.76065548 153.24571035 187.82681698 159.24609375 193.48046875 C162.5133043 196.46961883 165.9072254 199.24851835 169.375 202 C169.97030518 202.48106201 170.56561035 202.96212402 171.17895508 203.45776367 C174.05574312 205.72431157 176.33703607 207.50830281 180 208 C184.87083875 205.38283291 188.31061433 201.82011874 191.9375 197.75 C192.42412109 197.21503906 192.91074219 196.68007812 193.41210938 196.12890625 C196.10702654 193.15496096 198.75085558 190.13905152 201.3828125 187.109375 C205.13544133 182.81151886 209.02026707 178.64765839 212.9375 174.5 C213.60201172 173.79230469 214.26652344 173.08460938 214.95117188 172.35546875 C227.96400952 158.54747226 240.41892485 146.15504017 260.5 145.5 C277.46476895 146.03664065 289.0671306 154.86326035 300.87890625 166.0859375 C304.22879828 169.25351555 307.77809626 172.10794959 311.41015625 174.9453125 C314.47654051 177.37806985 317.45787424 179.89983247 320.4375 182.4375 C327.55919763 188.49078633 334.6838633 194.53508244 342.1706543 200.13549805 C342.88851608 200.67281052 343.60637787 201.21012299 344.34599304 201.76371765 C344.89181534 202.17169083 345.43763763 202.579664 346 203 C346.07029605 183.9622826 346.12308859 164.92459179 346.15543652 145.8867712 C346.17086005 137.04580771 346.1918625 128.20492518 346.22631836 119.36401367 C346.25635974 111.65207678 346.27560774 103.94019857 346.28226548 96.22820479 C346.28615296 92.15037836 346.29519314 88.07271972 346.31719017 83.99494743 C346.33778915 80.14457973 346.34378739 76.29444643 346.33932304 72.44402885 C346.34013792 71.04255391 346.34596263 69.64106983 346.35761642 68.2396431 C346.47977981 52.76963519 344.7827766 36.95943022 334 25 C316.93324092 13.84491952 296.72511966 14.84332296 277.19140625 14.93041992 C275.24801238 14.9352906 273.30461726 14.93968752 271.36122131 14.94364452 C267.28875397 14.95276851 263.21631146 14.9648688 259.14385986 14.97939682 C253.2155416 15.0002289 247.28723208 15.01228336 241.35888672 15.02212524 Z M209.6875 198.8125 C209.15253906 199.44414062 208.61757812 200.07578125 208.06640625 200.7265625 C206.33411619 202.63240903 204.56462014 204.42197141 202.71484375 206.2109375 C202.12550049 206.78352295 201.53615723 207.3561084 200.92895508 207.94604492 C199.74600202 209.08801327 198.55465219 210.22136065 197.35424805 211.3449707 C194.20082626 214.39443863 192.25633811 216.39445856 192 221 C210.4378058 237.03836532 228.97588977 251.61174375 253 258 C253.6815918 258.18401367 254.36318359 258.36802734 255.06542969 258.55761719 C276.73067648 264.20813444 299.1358248 264.17327588 321.375 264.1875 C322.31207794 264.18858765 323.24915588 264.18967529 324.21463013 264.1907959 C326.90098152 264.19044224 329.58712192 264.18131487 332.2734375 264.16796875 C333.0806575 264.16675522 333.8878775 264.16554169 334.71955872 264.16429138 C338.59898167 264.13199803 342.22881386 263.94444519 346 263 C346.87834726 256.14322461 347.21367696 249.41045898 347.25 242.5 C347.270625 241.51902344 347.29125 240.53804688 347.3125 239.52734375 C347.35322852 231.88056427 346.74474828 225.20673562 341.6328125 219.234375 C340.32957031 218.12835938 340.32957031 218.12835938 339 217 C338.17242187 216.22140625 337.34484375 215.4428125 336.4921875 214.640625 C331.12977369 209.74242014 325.66647504 205.04151199 320.015625 200.48046875 C316.4532926 197.55031192 312.97540547 194.53224761 309.5 191.5 C304.27629659 186.94763435 299.0084428 182.46981196 293.609375 178.125 C291.80369183 176.65450353 290.02374101 175.15204933 288.265625 173.625 C280.518085 166.97174531 272.28593218 161.74346247 261.9375 160.6875 C241.28953544 162.32622735 222.40308052 183.92065876 209.6875 198.8125 Z M87.12890625 214.4140625 C75.73852773 223.8768385 64.2138998 232.27341392 51 239 C50.4004248 239.31130859 49.80084961 239.62261719 49.18310547 239.94335938 C38.24384224 245.57046599 26.71185579 249.31603669 15 253 C13.24699665 264.14005355 13.32364695 274.2773036 17 285 C38.47867582 285.75314837 55.89395059 279.41866902 75.08996582 270.31378174 C75.6996521 270.02460876 76.30933838 269.73543579 76.9375 269.4375 C77.84937073 269.00470734 77.84937073 269.00470734 78.77966309 268.56317139 C98.51747823 259.23198222 119.41666677 252.64035595 141 260 C151.6908518 264.38763967 161.44938394 270.57377115 171.13769531 276.80371094 C216.6825245 306.06035265 263.17353646 311.97112838 316.36416626 312.17623901 C318.15175991 312.1836992 319.93934335 312.19433943 321.72689819 312.20828247 C324.26724613 312.22628692 326.80725154 312.23031072 329.34765625 312.23046875 C330.10202972 312.23760895 330.8564032 312.24474915 331.63363647 312.25210571 C332.35403107 312.2490744 333.07442566 312.24604309 333.81665039 312.24291992 C334.74278893 312.24505745 334.74278893 312.24505745 335.68763733 312.24723816 C339.18582479 311.87321144 342.58691632 310.85327092 346 310 C346 299.11 346 288.22 346 277 C341.25496094 277.03480469 341.25496094 277.03480469 336.4140625 277.0703125 C274.29697494 277.43359747 224.72248755 270.68336825 177.42578125 227.1796875 C173.96293807 224.06814725 170.33598238 221.17323511 166.7109375 218.25390625 C164.08385367 216.06971695 161.60951729 213.78130839 159.125 211.4375 C148.46728603 201.76253231 136.96033817 195.19948977 122.3984375 195.58984375 C108.65332283 197.2487369 97.44650413 205.81361818 87.12890625 214.4140625 Z M74 286 C55.8016886 294.61356857 39.29568838 297.62916951 19.26806641 298.76635742 C16.96917641 298.86824266 16.96917641 298.86824266 15 300 C14.94094583 303.29158865 14.90605625 306.58303756 14.875 309.875 C14.85824219 310.7928125 14.84148438 311.710625 14.82421875 312.65625 C14.72317452 327.00453013 19.15991139 340.13305704 28.29296875 351.38671875 C39.41673013 361.89956417 56.91718737 360.30290164 71.09594727 360.31884766 C73.00509558 360.32816454 74.91423989 360.33833578 76.82337952 360.34928894 C81.9912092 360.37650186 87.15901165 360.39172883 92.32689404 360.40471697 C97.79632381 360.42049549 103.26570054 360.44727004 108.73509216 360.4727478 C117.95920189 360.51422031 127.18331498 360.54869672 136.4074707 360.578125 C149.22581903 360.61902197 162.04409595 360.67179603 174.86238778 360.72740483 C189.15210108 360.78887544 203.44183425 360.84614526 217.73158264 360.89883423 C219.24586852 360.90447976 219.24586852 360.90447976 220.79074603 360.91023934 C225.78937476 360.92814279 230.7879735 360.94241648 235.78662968 360.94964027 C237.76881488 360.95275689 239.75099993 360.95597364 241.73318481 360.95928955 C243.20981158 360.96172962 243.20981158 360.96172962 244.7162692 360.96421897 C251.27309657 360.9800235 257.82872791 361.03558503 264.38513023 361.11096966 C269.04213985 361.16183288 273.69920288 361.19669925 278.35637081 361.22950053 C280.57617808 361.24906935 282.795936 361.27578729 285.01556122 361.31030011 C296.71006673 361.48944651 307.06135395 361.62122173 318 357 C318.88858672 356.6465621 319.77717344 356.2931242 320.69268703 355.92897606 C329.13279548 352.49640943 337.10586632 349.06793924 341.09765625 340.42578125 C341.39542969 339.62527344 341.69320313 338.82476562 342 338 C342.32871094 337.25105469 342.65742188 336.50210938 342.99609375 335.73046875 C344.43775234 332.2768955 345 329.77541358 345 326 C344.23754471 325.99413376 343.47508942 325.98826752 342.68952942 325.98222351 C335.35501283 325.92330285 328.02079865 325.85070629 320.68655872 325.76428509 C316.9197246 325.72034068 313.15298019 325.68094101 309.38598633 325.65356445 C275.96675002 325.40329399 242.74692901 323.40667464 211 312 C209.90268555 311.60868896 209.90268555 311.60868896 208.78320312 311.20947266 C188.53931642 303.85770073 169.44412422 293.79901491 151.60595703 281.75732422 C124.336229 263.61478108 101.0562787 273.08850094 74 286 Z " transform="translate(0,0)" style="fill: #000000;"/><path d="M0 0 C1.43802413 1.24661478 2.85795816 2.51473988 4.25 3.8125 C4.81460938 4.31265625 5.37921875 4.8128125 5.9609375 5.328125 C8.79535396 8.17820122 9.60538193 10.60869085 9.8125 14.5 C9.62390687 17.37241841 9.46525054 18.51653051 7.75 20.875 C4.1199047 22.23628574 1.00107433 22.78949084 -2.75 21.8125 C-4.62585835 20.35803012 -6.07398133 18.72173053 -7.65234375 16.94921875 C-20.37441023 3.99024228 -39.80840794 -3.35138697 -57.75 -4.1875 C-58.40355469 -4.2390625 -59.05710937 -4.290625 -59.73046875 -4.34375 C-77.76284556 -5.15571443 -94.32390923 2.18302897 -107.75 13.8125 C-109.70383539 15.44290538 -111.66233932 17.06772919 -113.625 18.6875 C-114.52992187 19.44804688 -115.43484375 20.20859375 -116.3671875 20.9921875 C-120.39959443 24.07268197 -123.79407718 24.08282306 -128.75 23.8125 C-130.75 21.8125 -130.75 21.8125 -130.90234375 19.9296875 C-130.07134623 11.25709521 -126.15478368 5.60730428 -119.75 -0.1875 C-119.3065625 -0.63480469 -118.863125 -1.08210938 -118.40625 -1.54296875 C-86.77427131 -31.6417648 -32.2693905 -24.96581543 0 0 Z " transform="translate(240.75,64.1875)" style="fill: #000000;"/><path d="M0 0 C13.96673639 10.47505229 13.96673639 10.47505229 14.9765625 16.1875 C14.96882813 16.94933594 14.96109375 17.71117188 14.953125 18.49609375 C14.96472656 19.64271484 14.96472656 19.64271484 14.9765625 20.8125 C14.47565453 23.47909833 13.7523779 24.33848722 11.578125 25.93359375 C8.42435565 26.93970422 5.76060383 26.79079393 2.578125 25.93359375 C-0.15562044 23.92884709 -2.47420669 21.69606223 -4.89453125 19.32421875 C-13.30041853 11.37305489 -23.51271845 8.10981612 -34.921875 7.37109375 C-46.28356272 7.76287609 -55.34833766 15.66325567 -63.421875 22.93359375 C-63.9375 23.50980469 -64.453125 24.08601563 -64.984375 24.6796875 C-67.231193 26.63954777 -69.62228894 26.34531206 -72.4765625 26.203125 C-74.421875 25.93359375 -74.421875 25.93359375 -76.984375 24.99609375 C-79.06987311 22.00385733 -78.67175048 19.77956352 -78.0703125 16.26171875 C-75.64331522 7.54792128 -67.61985281 2.62371865 -60.421875 -2.06640625 C-41.28103912 -12.55071025 -18.21291336 -12.38158584 0 0 Z " transform="translate(213.421875,89.06640625)" style="fill: #000000;"/><path d="M0 0 C6.6231332 3.99068279 11.16018568 9.84054167 13.18359375 17.28515625 C14.59310941 24.35768175 13.66443083 28.8696741 10.24609375 35.1640625 C6.51259759 40.54389552 1.04648601 44.18949265 -5.375 45.5 C-11.70664461 46.16205409 -17.70007186 45.52449089 -23.375 42.5 C-28.80358113 37.92296101 -32.010987 32.26596161 -32.69140625 25.2265625 C-32.9996758 15.89892255 -31.77628905 9.97154734 -25.4375 3.125 C-19.13352336 -3.16141682 -7.86080584 -3.47659906 0 0 Z M-13.875 15.3125 C-16.87817977 17.56488483 -17.30491168 18.17292116 -18.125 22 C-17.2672419 26.00287113 -16.42238088 27.77339606 -13.375 30.5 C-9.83202903 31.70611778 -8.12068932 31.78810724 -4.625 30.4375 C-1.7547462 27.96589256 -1.11336091 26.19180457 -0.375 22.5 C-0.04166667 19.83333333 -0.04166667 19.83333333 -1.375 17.5 C-5.48875171 13.90684714 -8.92056723 12.61891356 -13.875 15.3125 Z " transform="translate(190.375,122.5)" style="fill: #000000;"/></svg>